<?xml version='1.0' encoding='UTF-8' standalone='no'?>
<svg xmlns:xlink="http://www.w3.org/1999/xlink" height="210mm" xmlns:freecad="http://www.freecad.org/wiki/index.php?title=Svg_Namespace" xmlns:rdf="http://www.w3.org/1999/02/22-rdf-syntax-ns#" viewBox="0 0 2970 2100" xmlns:dc="http://purl.org/dc/elements/1.1/" xmlns="http://www.w3.org/2000/svg" version="1.2" xmlns:svg="http://www.w3.org/2000/svg" xmlns:cc="http://creativecommons.org/ns#" xmlns:inkscape="http://www.inkscape.org/namespaces/inkscape" width="297mm" baseProfile="tiny" xmlns:sodipodi="http://sodipodi.sourceforge.net/DTD/sodipodi-0.dtd">
 <title>FreeCAD SVG Export</title>
 <desc>Drawing page: Page003 exported from FreeCAD document: Ender2_Pocket_Edition</desc>
 <defs/>
 <g inkscape:label="TechDraw" id="Page003" inkscape:groupmode="layer">
  <g style="stroke: none;" transform="scale(10.000000, 10.000000)" id="A4_Landscape_blank.svg">
   <metadata id="metadata8">
    <rdf:RDF>
     <cc:Work rdf:about="">
      <dc:format>image/svg+xml</dc:format>
      <dc:type rdf:resource="http://purl.org/dc/dcmitype/StillImage"/>
     </cc:Work>
    </rdf:RDF>
   </metadata>
   <defs id="defs6"/>
  </g>
  <g stroke-linecap="square" fill="none" stroke="black" id="DrawingContent" stroke-linejoin="bevel" stroke-width="1" fill-rule="evenodd">
   <g stroke-linecap="square" fill="none" stroke-dashoffset="0" transform="matrix(1,0,0,1,116.617,215.159)" stroke="#ff0000" stroke-linejoin="bevel" font-size="29.1042" stroke-width="1" font-style="normal" stroke-dasharray="4,2" font-weight="400" stroke-opacity="1" font-family="MS Shell Dlg 2">
    <rect height="0" y="0" x="0" vector-effect="non-scaling-stroke" width="0"/>
   </g>
   <g stroke-linecap="round" fill="none" transform="matrix(1,0,0,1,116.617,215.159)" stroke="#ff0000" stroke-linejoin="bevel" font-size="29.1042" stroke-width="2" font-style="normal" font-weight="400" stroke-opacity="1" font-family="MS Shell Dlg 2">
    <path vector-effect="none" d="M100,190 L100,-190" fill-rule="evenodd"/>
   </g>
   <g stroke-linecap="round" fill="none" transform="matrix(1,0,0,1,116.617,215.159)" stroke="#ff0000" stroke-linejoin="bevel" font-size="29.1042" stroke-width="2" font-style="normal" font-weight="400" stroke-opacity="1" font-family="MS Shell Dlg 2">
    <path vector-effect="none" d="M100,190 C100,195.523 95.5228,200 90,200 " fill-rule="evenodd"/>
   </g>
   <g stroke-linecap="round" fill="none" transform="matrix(1,0,0,1,116.617,215.159)" stroke="#ff0000" stroke-linejoin="bevel" font-size="29.1042" stroke-width="2" font-style="normal" font-weight="400" stroke-opacity="1" font-family="MS Shell Dlg 2">
    <path vector-effect="none" d="M100,-190 C100,-195.523 95.5228,-200 90,-200 " fill-rule="evenodd"/>
   </g>
   <g stroke-linecap="round" fill="none" transform="matrix(1,0,0,1,116.617,215.159)" stroke="#ff0000" stroke-linejoin="bevel" font-size="29.1042" stroke-width="2" font-style="normal" font-weight="400" stroke-opacity="1" font-family="MS Shell Dlg 2">
    <path vector-effect="none" d="M-90,200 L90,200" fill-rule="evenodd"/>
   </g>
   <g stroke-linecap="round" fill="none" transform="matrix(1,0,0,1,116.617,215.159)" stroke="#ff0000" stroke-linejoin="bevel" font-size="29.1042" stroke-width="2" font-style="normal" font-weight="400" stroke-opacity="1" font-family="MS Shell Dlg 2">
    <path vector-effect="none" d="M90,-200 L-90,-200" fill-rule="evenodd"/>
   </g>
   <g stroke-linecap="round" fill="none" transform="matrix(1,0,0,1,116.617,215.159)" stroke="#ff0000" stroke-linejoin="bevel" font-size="29.1042" stroke-width="2" font-style="normal" font-weight="400" stroke-opacity="1" font-family="MS Shell Dlg 2">
    <path vector-effect="none" d="M-100,190 C-100,195.523 -95.5228,200 -90,200 " fill-rule="evenodd"/>
   </g>
   <g stroke-linecap="round" fill="none" transform="matrix(1,0,0,1,116.617,215.159)" stroke="#ff0000" stroke-linejoin="bevel" font-size="29.1042" stroke-width="2" font-style="normal" font-weight="400" stroke-opacity="1" font-family="MS Shell Dlg 2">
    <path vector-effect="none" d="M-90,-200 C-95.5228,-200 -100,-195.523 -100,-190 " fill-rule="evenodd"/>
   </g>
   <g stroke-linecap="round" fill="none" transform="matrix(1,0,0,1,116.617,215.159)" stroke="#ff0000" stroke-linejoin="bevel" font-size="29.1042" stroke-width="2" font-style="normal" font-weight="400" stroke-opacity="1" font-family="MS Shell Dlg 2">
    <path vector-effect="none" d="M-100,-190 L-100,190" fill-rule="evenodd"/>
   </g>
   <g stroke-linecap="round" fill="none" transform="matrix(1,0,0,1,116.617,215.159)" stroke="#ff0000" stroke-linejoin="bevel" font-size="29.1042" stroke-width="2" font-style="normal" font-weight="400" stroke-opacity="1" font-family="MS Shell Dlg 2">
    <path vector-effect="none" d="M27.5,-100 C27.5,-84.8122 15.1878,-72.5 -1.42109e-14,-72.5 C-15.1878,-72.5 -27.5,-84.8122 -27.5,-100 C-27.5,-115.188 -15.1878,-127.5 -1.42109e-14,-127.5 C15.1878,-127.5 27.5,-115.188 27.5,-100 " fill-rule="evenodd"/>
   </g>
   <g stroke-linecap="round" fill="none" transform="matrix(1,0,0,1,116.617,215.159)" stroke="#ff0000" stroke-linejoin="bevel" font-size="29.1042" stroke-width="2" font-style="normal" font-weight="400" stroke-opacity="1" font-family="MS Shell Dlg 2">
    <path vector-effect="none" d="M27.5,100 C27.5,115.188 15.1878,127.5 3.55271e-14,127.5 C-15.1878,127.5 -27.5,115.188 -27.5,100 C-27.5,84.8122 -15.1878,72.5 3.55271e-14,72.5 C15.1878,72.5 27.5,84.8122 27.5,100 " fill-rule="evenodd"/>
   </g>
  </g>
 </g>
</svg>
